<svg xmlns="http://www.w3.org/2000/svg" x="0px" y="0px"
     width="30" height="30"
     viewBox="0 0 172 172"
     style=" fill:transparent;">
    <g fill="none" fill-rule="nonzero" stroke="none" stroke-width="1" stroke-linecap="butt"
       stroke-linejoin="miter" stroke-miterlimit="10" stroke-dasharray="" stroke-dashoffset="0"
       font-family="none" font-weight="100" font-size="none"
       style="mix-blend-mode: normal">
        <path d="M0,172v-172h172v172z" fill="none"></path>
        <g fill="#999999">
            <path d="M86,37.84c-20.06219,0 -38.3775,5.20031 -52.32562,13.76h-26.79438c0,0 6.03344,7.40406 8.86875,15.74875c-5.53625,7.02781 -8.86875,15.88313 -8.86875,25.53125c0,22.80344 18.47656,41.28 41.28,41.28c12.02656,0 22.83031,-5.18687 30.36875,-13.39719l7.47125,9.95719l7.47125,-9.95719c7.53844,8.21031 18.34219,13.39719 30.36875,13.39719c22.80344,0 41.28,-18.47656 41.28,-41.28c0,-9.64812 -3.3325,-18.50344 -8.86875,-25.53125c2.83531,-8.34469 8.86875,-15.74875 8.86875,-15.74875h-26.82125c-13.94812,-8.55969 -32.25,-13.76 -52.29875,-13.76zM86,44.72c13.35688,0 26.09563,2.43219 37.15469,6.92031c-16.63562,0.26875 -30.87937,10.37375 -37.15469,24.77875c-6.28875,-14.43188 -20.55937,-24.55031 -37.24875,-24.77875l0.24188,-0.08063c11.04562,-4.43437 23.74406,-6.83969 37.00687,-6.83969zM48.16,58.48c19.00063,0 34.4,15.39938 34.4,34.4c0,19.00063 -15.39937,34.4 -34.4,34.4c-19.00062,0 -34.4,-15.39937 -34.4,-34.4c0,-19.00062 15.39938,-34.4 34.4,-34.4zM123.84,58.48c19.00063,0 34.4,15.39938 34.4,34.4c0,19.00063 -15.39937,34.4 -34.4,34.4c-19.00062,0 -34.4,-15.39937 -34.4,-34.4c0,-19.00062 15.39938,-34.4 34.4,-34.4zM48.16,72.24c-11.395,0 -20.64,9.245 -20.64,20.64c0,11.395 9.245,20.64 20.64,20.64c11.395,0 20.64,-9.245 20.64,-20.64c0,-11.395 -9.245,-20.64 -20.64,-20.64zM123.84,72.24c-11.395,0 -20.64,9.245 -20.64,20.64c0,11.395 9.245,20.64 20.64,20.64c11.395,0 20.64,-9.245 20.64,-20.64c0,-11.395 -9.245,-20.64 -20.64,-20.64zM48.16,79.12c7.60563,0 13.76,6.15438 13.76,13.76c0,7.60563 -6.15437,13.76 -13.76,13.76c-7.60562,0 -13.76,-6.15437 -13.76,-13.76c0,-7.60562 6.15438,-13.76 13.76,-13.76zM123.84,79.12c7.60563,0 13.76,6.15438 13.76,13.76c0,7.60563 -6.15437,13.76 -13.76,13.76c-7.60562,0 -13.76,-6.15437 -13.76,-13.76c0,-7.60562 6.15438,-13.76 13.76,-13.76zM48.16,86c-3.80281,0 -6.88,3.07719 -6.88,6.88c0,3.80281 3.07719,6.88 6.88,6.88c3.80281,0 6.88,-3.07719 6.88,-6.88c0,-3.80281 -3.07719,-6.88 -6.88,-6.88zM123.84,86c-3.80281,0 -6.88,3.07719 -6.88,6.88c0,3.80281 3.07719,6.88 6.88,6.88c3.80281,0 6.88,-3.07719 6.88,-6.88c0,-3.80281 -3.07719,-6.88 -6.88,-6.88z"></path>
        </g>
    </g>
</svg>